# xmcd
#
# Track frame offsets: 
#        150
#        5998
#        19043
#        33190
#        47358
#        59452
#        68668
#        86314
#        100294
#        107194
#        128621
#        142547
#        157899
#        174507
#        188051
#        203661
#
# Disc length: 2974 seconds
#
# Revision: 2
# Processed by: cddbd v1.5.2PL0 Copyright (c) Steve Scherf et al.
# Submitted via: ExactAudioCopyFreeDBPlugin 1.0
#
DISCID=bf0b9c10
DTITLE=Team Avantgarde - Paradox
DYEAR=2010
DGENRE=Rap
TTITLE0=Intro
TTITLE1=Paradox
TTITLE2=Deinen Namen
TTITLE3=Guck mein Drumset! feat. Gris
TTITLE4=30m²
TTITLE5=Escape
TTITLE6=Mein Tag
TTITLE7=Pollwinners feat. Justus and Boba Fett
TTITLE8=Geträumt - Aufgewacht
TTITLE9=Sometimes feat. Gris, Amewu, Wakka and Dj Fiks
TTITLE10=Konventionen
TTITLE11=Wunderbare Jahre
TTITLE12=Ich will dich mit niemandem teilen
TTITLE13=Payback
TTITLE14=Fertig!
TTITLE15=Tod - Leben
EXTD=
EXTT0=
EXTT1=
EXTT2=
EXTT3=
EXTT4=
EXTT5=
EXTT6=
EXTT7=
EXTT8=
EXTT9=
EXTT10=
EXTT11=
EXTT12=
EXTT13=
EXTT14=
EXTT15=
PLAYORDER=
